<svg width="50" height="50" viewBox="0 0 50 50" fill="none" xmlns="http://www.w3.org/2000/svg">
<path d="M49 35H0L24.5 9L49 35ZM13.3075 22.1309L16.6442 25.6702L19.981 22.1309L16.6442 18.5812L13.3075 22.1309ZM16.6442 34.0052L19.981 30.466L16.6442 26.9162L13.3075 30.466L16.6442 34.0052ZM32.4083 34.0052L35.745 30.466L32.4083 26.9162L29.019 30.466L32.4083 34.0052ZM28.4673 14.4031C28.4473 14.4376 28.4207 14.4694 28.3885 14.4974C27.3507 15.6178 26.2997 16.7382 25.2357 17.8482C25.1437 17.9424 25.2357 18.0052 25.2357 18.089L28.3097 21.356L28.4542 21.4921L31.7909 17.9634L28.4673 14.4031ZM8.78847 34.0052L8.91984 33.8691L11.9938 30.6126C12.0428 30.5717 12.0702 30.5173 12.0702 30.4607C12.0702 30.4042 12.0428 30.3498 11.9938 30.3089C11.0611 29.3456 10.1547 28.3613 9.23512 27.3874L8.78847 26.9162L5.45174 30.466L8.78847 34.0052ZM17.2354 17.9529L20.5721 21.4921L20.6772 21.3979L23.8169 18.0681C23.922 17.9529 23.8169 17.89 23.8169 17.8063L20.7429 14.5602L20.6115 14.4241L17.2354 17.9529ZM17.2354 26.3298L20.5721 29.8691L20.7429 29.7016C21.7413 28.6545 22.7528 27.6073 23.7643 26.4869C23.7926 26.4663 23.8152 26.4412 23.8307 26.4133C23.8461 26.3853 23.8541 26.3551 23.8541 26.3246C23.8541 26.2941 23.8461 26.2639 23.8307 26.2359C23.8152 26.208 23.7926 26.1829 23.7643 26.1623C22.8185 25.1675 21.8727 24.1728 20.9399 23.1675L20.5721 22.7906L17.2354 26.3298ZM32.9995 26.3298L36.3362 29.8691L39.6729 26.3298L36.3362 22.7906L32.9995 26.3298ZM28.4673 22.7801V22.8534L25.3013 26.2147C25.1962 26.3089 25.2357 26.3717 25.3013 26.4555L28.244 29.5969C28.3228 29.6911 28.4147 29.7853 28.5198 29.8901L31.8566 26.3508L28.4673 22.7801ZM12.7295 29.8482C12.7453 29.8175 12.7675 29.7892 12.7952 29.7644L15.9611 26.4031C16.0531 26.2984 15.9611 26.2461 15.9611 26.1623L12.8477 22.8953C12.8069 22.8484 12.7583 22.8061 12.7032 22.7696L9.37962 26.2984L12.7295 29.8482ZM32.3558 25.6597L35.6925 22.1204L32.3558 18.5916L29.019 22.1309L32.3558 25.6597ZM24.4737 17.2827L27.8105 13.7435L24.5263 10.2775H24.4606L21.2552 13.712C21.2354 13.7371 21.2249 13.7662 21.2249 13.7958C21.2249 13.8255 21.2354 13.8545 21.2552 13.8796L24.4737 17.2827ZM24.4737 25.6597L27.8105 22.1204L24.5 18.5812L21.1633 22.1309L24.4737 25.6597ZM24.4737 34.0366L27.8105 30.4974L24.4737 26.9476L21.1633 30.466L24.4737 34.0366ZM40.2378 34.0366L43.5745 30.4974L40.2509 26.9791H40.1853L36.9668 30.3613C36.8617 30.4764 36.9668 30.5288 36.9668 30.6021L39.5941 33.4398L40.2378 34.0366ZM1.89169 34.2356H7.88204L4.91314 31.0942L1.89169 34.2356ZM41.1705 34.2356H47.1083L44.1394 31.0942L41.1705 34.2356ZM23.5542 34.2356L20.5721 31.0942L17.5901 34.2356H23.5542ZM33.3147 34.2356H39.2525L36.2836 31.0942L33.3147 34.2356ZM31.3968 34.2356L28.4279 31.0942L25.459 34.2356H31.3968ZM15.6327 34.2356L12.6638 31.0942L9.69491 34.2356H15.6327Z" fill="white"/>
</svg>
