<svg width="360" height="211" viewBox="0 0 360 211" fill="none" xmlns="http://www.w3.org/2000/svg">
<path d="M357.171 0H2.82899C1.26658 0 0 1.24759 0 2.78657V208.213C0 209.752 1.26658 211 2.82899 211H357.171C358.733 211 360 209.752 360 208.213V2.78657C360 1.24759 358.733 0 357.171 0Z" fill="#BCBCBC"/>
<path d="M235 34H20V69H235V34Z" fill="white" stroke="#A4A4A3" stroke-width="0.5" stroke-miterlimit="10"/>
<path d="M340 161H20V196H340V161Z" fill="white" stroke="#A4A4A3" stroke-width="0.567" stroke-miterlimit="10"/>
<path fill-rule="evenodd" clip-rule="evenodd" d="M313.61 92.8515C316.499 95.5248 320.284 97.006 324.21 96.9999C328.409 96.9666 332.425 95.2664 335.383 92.2699C338.34 89.2734 340 85.2234 340 81.0024C340 76.7814 338.34 72.7314 335.383 69.7349C332.425 66.7384 328.409 65.0382 324.21 65.0049C320.284 64.9982 316.499 66.4787 313.61 69.1514C311.967 70.652 310.654 72.4814 309.755 74.5222C308.857 76.563 308.392 78.7701 308.392 81.0019C308.392 83.2337 308.857 85.4408 309.755 87.4816C310.654 89.5225 311.967 91.3519 313.61 92.8525V92.8515Z" fill="#E99F2B"/>
<path fill-rule="evenodd" clip-rule="evenodd" d="M337.926 89.9127C337.926 89.8479 337.938 89.7837 337.963 89.7238C337.987 89.6638 338.023 89.6094 338.069 89.5635C338.114 89.5177 338.169 89.4814 338.228 89.4568C338.288 89.4321 338.352 89.4195 338.416 89.4197C338.483 89.4166 338.549 89.4271 338.612 89.4504C338.674 89.4737 338.732 89.5094 338.78 89.5554C338.828 89.6014 338.867 89.6568 338.894 89.7182C338.921 89.7796 338.935 89.8457 338.935 89.9127C338.938 89.9819 338.926 90.0509 338.901 90.1152C338.875 90.1796 338.837 90.2381 338.789 90.287C338.74 90.336 338.682 90.3744 338.618 90.3998C338.554 90.4251 338.485 90.437 338.416 90.4347C338.35 90.4339 338.284 90.4197 338.223 90.3928C338.162 90.366 338.107 90.327 338.061 90.2783C338.015 90.2296 337.979 90.1722 337.956 90.1093C337.933 90.0465 337.923 89.9797 337.926 89.9127ZM338.416 90.3259C338.524 90.3231 338.627 90.2786 338.703 90.2016C338.779 90.1247 338.823 90.0212 338.825 89.9127C338.821 89.8074 338.776 89.7078 338.7 89.6358C338.623 89.5638 338.521 89.5253 338.416 89.5285C338.316 89.5308 338.22 89.572 338.149 89.6436C338.077 89.7151 338.036 89.8115 338.034 89.9127C338.035 90.017 338.075 90.117 338.146 90.1934C338.217 90.2698 338.313 90.317 338.416 90.3259ZM338.362 90.1612H338.253V89.6931H338.443C338.482 89.6887 338.521 89.6983 338.553 89.7201C338.607 89.7471 338.607 89.776 338.607 89.8309C338.607 89.8857 338.58 89.9417 338.525 89.9417L338.636 90.1612H338.499L338.443 89.9686H338.362V89.8848H338.469C338.496 89.8848 338.496 89.8578 338.496 89.8309C338.496 89.8039 338.496 89.804 338.469 89.777H338.359L338.362 90.1612Z" fill="#E99F2B"/>
<path fill-rule="evenodd" clip-rule="evenodd" d="M318.719 79.3115C318.664 78.7347 318.555 78.1859 318.445 77.6091H308.775C308.89 77.0431 309.036 76.4838 309.211 75.9335H317.983C317.791 75.3547 317.573 74.7872 317.326 74.231H309.895C310.167 73.6489 310.468 73.0814 310.797 72.5285H316.397C316.038 71.9411 315.637 71.3811 315.196 70.853H311.997C312.492 70.2454 313.031 69.6756 313.609 69.1485C311.327 67.0672 308.492 65.6968 305.449 65.2039C302.406 64.7109 299.287 65.1165 296.469 66.3714C293.651 67.6263 291.257 69.6765 289.576 72.2731C287.895 74.8697 287 77.9011 287 80.999C287 84.097 287.895 87.1283 289.576 89.7249C291.257 92.3216 293.651 94.3718 296.469 95.6267C299.287 96.8816 302.406 97.2871 305.449 96.7942C308.492 96.3012 311.327 94.9309 313.609 92.8496C314.18 92.3322 314.711 91.7721 315.198 91.174H311.997C311.566 90.6289 311.165 90.0606 310.796 89.4716H316.396C316.749 88.9287 317.059 88.3596 317.325 87.7691H309.894C309.637 87.2223 309.409 86.6624 309.21 86.0916H317.982C318.165 85.5324 318.32 84.9642 318.445 84.3891C318.686 83.2799 318.805 82.1474 318.801 81.012C318.801 80.4352 318.774 79.8584 318.719 79.3095V79.3115Z" fill="#BF0C24"/>
<path fill-rule="evenodd" clip-rule="evenodd" d="M337.926 84.7212C337.923 84.6544 337.934 84.5878 337.957 84.5252C337.98 84.4626 338.016 84.4054 338.061 84.3569C338.107 84.3084 338.162 84.2697 338.223 84.2429C338.284 84.2162 338.35 84.202 338.416 84.2013C338.485 84.1988 338.553 84.2105 338.617 84.2357C338.681 84.261 338.739 84.2991 338.788 84.3479C338.837 84.3966 338.875 84.4549 338.9 84.5191C338.926 84.5834 338.938 84.6521 338.935 84.7212C338.936 84.7898 338.922 84.8577 338.896 84.9211C338.87 84.9845 338.832 85.0421 338.784 85.0905C338.735 85.139 338.678 85.1775 338.615 85.2037C338.552 85.2298 338.484 85.2433 338.416 85.2431C338.283 85.2374 338.157 85.1797 338.066 85.0823C337.974 84.9848 337.924 84.8552 337.926 84.7212ZM338.416 85.1054C338.469 85.1092 338.521 85.1021 338.571 85.0845C338.621 85.0669 338.666 85.0393 338.705 85.0032C338.743 84.9672 338.774 84.9235 338.795 84.875C338.816 84.8265 338.827 84.7741 338.827 84.7212C338.827 84.6683 338.816 84.6159 338.795 84.5674C338.774 84.5189 338.743 84.4752 338.705 84.4392C338.666 84.4031 338.621 84.3754 338.571 84.3579C338.521 84.3403 338.469 84.3332 338.416 84.337C338.315 84.337 338.218 84.3775 338.146 84.4495C338.074 84.5216 338.034 84.6193 338.034 84.7212C338.034 84.8231 338.074 84.9208 338.146 84.9928C338.218 85.0649 338.315 85.1054 338.416 85.1054ZM338.362 84.9408H338.253V84.5017H338.551C338.605 84.5286 338.605 84.5855 338.605 84.6394C338.601 84.663 338.591 84.6853 338.577 84.7046C338.563 84.7238 338.545 84.7394 338.523 84.7501L338.634 84.9427H338.497L338.441 84.7781H338.36V84.6943H338.414C338.441 84.6943 338.47 84.6942 338.47 84.6673C338.497 84.6673 338.497 84.6403 338.497 84.6124C338.497 84.6053 338.494 84.5984 338.489 84.5933C338.484 84.5883 338.477 84.5855 338.47 84.5855C338.47 84.5565 338.441 84.5855 338.414 84.5855H338.36L338.362 84.9408Z" fill="white"/>
<path fill-rule="evenodd" clip-rule="evenodd" d="M308.227 85.6254C307.81 85.7544 307.379 85.8282 306.943 85.8449C306.122 85.8449 305.631 85.325 305.631 84.3889C305.637 84.1885 305.655 83.9885 305.685 83.7901L305.795 83.1595L305.876 82.6376L306.614 78.1338H308.253L308.062 79.1218H309.101L308.854 80.7694H307.815L307.379 83.4639C307.36 83.5538 307.351 83.6454 307.352 83.7373C307.352 84.0945 307.516 84.2362 307.926 84.2362C308.1 84.2335 308.274 84.2147 308.445 84.1803L308.227 85.6254ZM313.528 85.5715C312.959 85.734 312.37 85.8169 311.779 85.818C311.383 85.8665 310.982 85.8239 310.606 85.6935C310.229 85.563 309.887 85.3482 309.605 85.0652C309.323 84.7822 309.109 84.4385 308.979 84.0601C308.849 83.6817 308.807 83.2784 308.855 82.881C308.855 80.6007 310.112 78.9521 311.86 78.9521C312.173 78.9347 312.486 78.9852 312.778 79.1002C313.07 79.2152 313.334 79.3921 313.552 79.6187C313.77 79.8454 313.936 80.1166 314.041 80.4138C314.145 80.711 314.184 81.0273 314.156 81.3412C314.15 81.8867 314.086 82.4301 313.965 82.9619H310.549C310.529 83.0334 310.52 83.1073 310.522 83.1814C310.522 83.9498 311.041 84.3341 312.024 84.3341C312.639 84.3327 313.246 84.1922 313.8 83.9229L313.528 85.5715ZM312.516 81.6446V81.3143C312.53 81.2015 312.519 81.0869 312.483 80.979C312.448 80.8712 312.388 80.7728 312.31 80.691C312.231 80.6092 312.135 80.5462 312.029 80.5066C311.923 80.4669 311.81 80.4518 311.697 80.462C311.151 80.462 310.768 80.8732 310.605 81.6446H312.516ZM295.114 85.7092H293.418L294.403 79.474L292.19 85.7092H291.015L290.878 79.502L289.84 85.7092H288.173L289.511 77.6069H291.998L292.052 82.6056L293.719 77.6069H296.451L295.114 85.7092ZM299.239 82.7703C299.13 82.7499 299.02 82.7408 298.91 82.7433C297.927 82.7433 297.435 83.1276 297.435 83.7313C297.426 83.8191 297.435 83.9078 297.463 83.9916C297.491 84.0754 297.536 84.1524 297.595 84.2173C297.655 84.2822 297.728 84.3337 297.808 84.3682C297.889 84.4028 297.976 84.4198 298.064 84.4179C298.883 84.4209 299.211 83.7293 299.239 82.7723V82.7703ZM300.606 85.7092H299.13L299.157 85.0216C298.951 85.2998 298.676 85.5196 298.36 85.6595C298.044 85.7994 297.697 85.8547 297.353 85.82C297.134 85.804 296.919 85.7443 296.723 85.6441C296.527 85.5438 296.352 85.4052 296.21 85.2364C296.067 85.0675 295.96 84.8718 295.893 84.6607C295.827 84.4495 295.803 84.2272 295.824 84.0067C295.827 83.7182 295.872 83.4317 295.959 83.1564C296.233 82.1395 297.242 81.5089 298.801 81.4809C298.992 81.4809 299.291 81.4809 299.565 81.5079C299.606 81.3651 299.624 81.2171 299.62 81.0688C299.62 80.6277 299.265 80.4899 298.473 80.4899C297.991 80.4875 297.511 80.5623 297.052 80.7115L296.806 80.7664L296.696 80.7933L296.943 79.3104C297.585 79.086 298.258 78.9655 298.938 78.9531C300.411 78.9531 301.205 79.6407 301.205 80.9041C301.222 81.336 301.194 81.7684 301.122 82.1944L300.74 84.5546L300.686 84.9677L300.659 85.298L300.633 85.5176L300.606 85.7092ZM321.778 79.1717C322.316 79.1903 322.842 79.3418 323.309 79.6128L323.607 77.8544C323.464 77.7914 323.318 77.7364 323.17 77.6897L322.486 77.4971C321.597 77.3308 320.679 77.4168 319.836 77.7456C319.462 77.9921 319.122 78.2871 318.824 78.6228L318.606 78.5679L316.859 79.8044L316.94 79.1168H315.136L314.072 85.7032H315.792L316.42 82.1625C316.42 82.1625 316.667 81.6635 316.775 81.5029C316.881 81.3522 317.027 81.234 317.195 81.1614C317.364 81.0888 317.55 81.0647 317.731 81.0917H317.868C317.811 81.5097 317.784 81.9312 317.787 82.3531C317.787 84.4957 318.988 85.8459 320.846 85.8459C321.355 85.8427 321.861 85.7689 322.35 85.6264L322.648 83.7592C322.209 84.025 321.711 84.176 321.199 84.1983C320.189 84.1983 319.589 83.4299 319.589 82.2224C319.592 80.4361 320.493 79.1737 321.778 79.1737V79.1717ZM336.287 77.6069L335.904 79.9131C335.752 79.6309 335.527 79.3952 335.253 79.2309C334.978 79.0667 334.665 78.98 334.346 78.98C333.865 78.9946 333.399 79.1437 332.998 79.4104C332.597 79.6772 332.279 80.051 332.078 80.4899V80.463L330.986 79.8054L331.096 79.1178H329.266L328.227 85.7102H329.921L330.495 82.1675C330.495 82.1675 330.933 81.6685 331.041 81.5079C331.132 81.3894 331.248 81.2916 331.379 81.2207C331.511 81.1499 331.656 81.1077 331.805 81.0967C331.599 81.7254 331.499 82.384 331.507 83.0457C331.507 84.6933 332.353 85.7921 333.61 85.7921C333.913 85.7988 334.215 85.7354 334.49 85.6068C334.765 85.4783 335.008 85.288 335.198 85.0506L335.115 85.7102H336.727L338.039 77.6079L336.287 77.6069ZM334.182 84.1424C333.608 84.1424 333.309 83.7033 333.309 82.8521C333.309 81.5607 333.855 80.6277 334.647 80.6277C335.243 80.6277 335.549 81.0957 335.549 81.918C335.548 83.2383 335.002 84.1454 334.181 84.1454L334.182 84.1424ZM326.287 82.7703C326.179 82.7499 326.069 82.7408 325.959 82.7433C324.974 82.7433 324.483 83.1276 324.483 83.7313C324.474 83.819 324.484 83.9076 324.511 83.9913C324.539 84.075 324.584 84.1519 324.643 84.2169C324.702 84.2818 324.775 84.3333 324.855 84.3679C324.936 84.4026 325.023 84.4196 325.111 84.4179C325.932 84.4209 326.259 83.7293 326.287 82.7723V82.7703ZM327.652 85.7092H326.15L326.208 85.0266C326.001 85.3047 325.727 85.5243 325.411 85.6642C325.096 85.8041 324.749 85.8595 324.406 85.825C324.181 85.8157 323.961 85.7608 323.758 85.6636C323.556 85.5664 323.375 85.429 323.226 85.2595C323.078 85.0901 322.965 84.8921 322.895 84.6777C322.824 84.4632 322.798 84.2366 322.817 84.0117C322.817 82.4469 323.992 81.4859 325.849 81.4859C326.096 81.4823 326.342 81.4913 326.587 81.5129C326.635 81.371 326.663 81.2233 326.67 81.0738C326.67 80.6327 326.315 80.4969 325.496 80.4969C325.014 80.496 324.534 80.5701 324.074 80.7165L323.856 80.7714L323.746 80.7983L323.991 79.3154C324.633 79.0914 325.306 78.9708 325.985 78.9581C327.461 78.9581 328.225 79.6457 328.225 80.9091C328.257 81.3409 328.23 81.7752 328.144 82.1994L327.788 84.5616L327.735 84.9727L327.679 85.303L327.652 85.5226V85.7152V85.7092ZM304.184 80.5199C304.614 80.5222 305.043 80.5586 305.467 80.6287L305.713 79.0908C305.222 79.037 304.566 78.9531 304.183 78.9531C302.271 78.9531 301.641 79.998 301.641 81.2045C301.635 81.605 301.756 81.997 301.987 82.3233C302.218 82.6496 302.547 82.8929 302.926 83.0178C303.61 83.3481 303.72 83.402 303.72 83.7054C303.72 84.1165 303.367 84.363 302.71 84.363C302.179 84.3636 301.652 84.271 301.152 84.0895L300.96 85.5994L300.987 85.6264L301.316 85.6813C301.46 85.7167 301.607 85.7447 301.754 85.7651C302.163 85.792 302.519 85.819 302.737 85.819C304.649 85.819 305.443 85.0775 305.443 83.6235C305.455 83.2187 305.336 82.8209 305.104 82.4896C304.873 82.1583 304.541 81.9112 304.158 81.7853C303.42 81.455 303.337 81.4011 303.337 81.0977C303.337 80.7943 303.665 80.5209 304.184 80.5209V80.5199Z" fill="#082C5C"/>
<path fill-rule="evenodd" clip-rule="evenodd" d="M324.078 77.3335L323.78 79.0919C323.314 78.8214 322.789 78.6706 322.251 78.6528C320.966 78.6528 320.066 79.9142 320.066 81.7005C320.066 82.937 320.662 83.6784 321.679 83.6784C322.186 83.653 322.68 83.5124 323.125 83.2673L322.827 85.1055C322.34 85.2555 321.835 85.339 321.325 85.3539C319.468 85.3539 318.318 84.0068 318.318 81.8382C318.318 78.9532 319.907 76.9214 322.17 76.9214C322.437 76.9167 322.704 76.9448 322.964 77.0052L323.648 77.1699C323.869 77.2517 323.922 77.2787 324.087 77.3325L324.078 77.3335ZM318.559 78.5431H318.396C317.822 78.5431 317.494 78.8185 316.974 79.6148L317.138 78.5979H315.579L314.515 85.1903H316.235C316.865 81.1527 317.03 80.4661 317.848 80.4661H317.958C318.083 79.8056 318.304 79.1669 318.612 78.57L318.559 78.5431ZM308.668 85.1055C308.275 85.2519 307.859 85.3269 307.44 85.327C307.249 85.3448 307.056 85.3186 306.877 85.2504C306.697 85.1823 306.536 85.074 306.404 84.9337C306.272 84.7934 306.174 84.6248 306.117 84.4407C306.059 84.2566 306.044 84.0618 306.073 83.871C306.079 83.6778 306.097 83.4851 306.128 83.2942L306.238 82.6346L306.321 82.1147L307.057 77.609H308.753L308.561 78.5969H309.434L309.215 80.2176H308.341L307.877 82.9639C307.856 83.0541 307.847 83.1467 307.85 83.2393C307.85 83.5677 308.014 83.7054 308.424 83.7054C308.581 83.7194 308.739 83.7007 308.888 83.6505L308.669 85.1044L308.668 85.1055ZM302.085 80.6856C302.08 81.0888 302.201 81.4834 302.431 81.8136C302.661 82.1438 302.989 82.393 303.368 82.5258C304.079 82.8541 304.189 82.9649 304.189 83.2383C304.189 83.6515 303.891 83.8441 303.204 83.8441C302.684 83.84 302.168 83.7562 301.674 83.5956L301.429 85.1055L301.51 85.1344L301.808 85.1893C301.96 85.2276 302.116 85.2457 302.272 85.2432C302.58 85.2853 302.89 85.304 303.201 85.2991C305.005 85.2991 305.853 84.6115 305.853 83.1036C305.879 82.7071 305.775 82.3128 305.558 81.9807C305.341 81.6486 305.022 81.3967 304.649 81.2634C303.912 80.9331 303.83 80.8523 303.83 80.5489C303.83 80.1917 304.128 80.027 304.678 80.027C305.089 80.0304 305.499 80.0584 305.906 80.1108L306.154 78.6009C305.656 78.5161 305.154 78.47 304.649 78.4632C302.733 78.4622 302.052 79.4771 302.081 80.6866L302.085 80.6856ZM337.165 85.1893H335.553L335.634 84.5566C335.439 84.7854 335.196 84.9681 334.922 85.0916C334.648 85.2151 334.351 85.2764 334.051 85.2712C332.794 85.2712 331.973 84.2013 331.973 82.5538C331.973 80.3583 333.257 78.4892 334.76 78.4892C335.087 78.4908 335.408 78.5746 335.695 78.7328C335.981 78.8911 336.224 79.1188 336.401 79.3953L336.783 77.087H338.474L337.162 85.1893H337.165ZM334.65 83.6515C335.445 83.6515 335.989 82.7174 335.989 81.4271C335.989 80.5748 335.691 80.1297 335.087 80.1297C334.323 80.1297 333.749 81.0359 333.749 82.3252C333.746 83.2094 334.046 83.6518 334.647 83.6525L334.65 83.6515ZM313.914 85.0486C313.341 85.2355 312.741 85.3285 312.138 85.324C310.224 85.324 309.241 84.3071 309.241 82.3582C309.241 80.1048 310.498 78.4293 312.219 78.4293C312.534 78.4098 312.849 78.4587 313.144 78.5727C313.438 78.6866 313.704 78.8629 313.925 79.0895C314.145 79.3162 314.314 79.588 314.421 79.8863C314.528 80.1846 314.569 80.5025 314.543 80.8183C314.538 81.3745 314.465 81.9279 314.324 82.4659H310.935C310.914 82.528 310.905 82.5932 310.908 82.6585C310.908 83.4289 311.427 83.8132 312.41 83.8132C313.027 83.8244 313.637 83.6825 314.186 83.4L313.914 85.0486ZM312.956 81.1217V80.7944C312.97 80.6817 312.959 80.5672 312.923 80.4594C312.888 80.3516 312.828 80.2533 312.75 80.1716C312.671 80.09 312.575 80.0272 312.469 79.9878C312.363 79.9484 312.25 79.9335 312.137 79.9442C311.591 79.9442 311.208 80.3553 311.045 81.1247L312.956 81.1217ZM295.551 85.1853H293.857L294.84 78.9502L292.627 85.1853H291.452L291.315 79.0071L290.278 85.1853H288.689L290.028 77.0831H292.488L292.569 82.1087L294.208 77.0831H296.889L295.551 85.1853ZM299.786 82.2464C299.622 82.2464 299.541 82.2194 299.404 82.2194C298.448 82.2194 297.955 82.5767 297.955 83.2344C297.943 83.3186 297.95 83.4044 297.975 83.4857C298 83.567 298.042 83.6418 298.099 83.7048C298.156 83.7677 298.226 83.8174 298.304 83.8501C298.382 83.8828 298.466 83.8978 298.551 83.894C299.267 83.899 299.755 83.2383 299.786 82.2504V82.2464ZM301.046 85.1853H299.624L299.651 84.4977C299.436 84.7672 299.16 84.9805 298.846 85.1196C298.532 85.2586 298.189 85.3191 297.847 85.2961C297.624 85.2932 297.405 85.2432 297.202 85.1495C297 85.0557 296.82 84.9203 296.673 84.752C296.526 84.5836 296.416 84.3861 296.35 84.1723C296.284 83.9585 296.264 83.7331 296.29 83.5108C296.29 81.8901 297.382 80.956 299.295 80.956C299.487 80.956 299.734 80.983 300.006 81.0109C300.044 80.8773 300.062 80.7387 300.06 80.5998C300.06 80.1607 299.762 80.001 298.968 80.001C298.489 79.9947 298.012 80.05 297.548 80.1657L297.301 80.2475L297.137 80.2765L297.384 78.7935C298.047 78.579 298.738 78.4676 299.433 78.4632C300.909 78.4632 301.701 79.1209 301.701 80.3853C301.691 80.8277 301.645 81.2685 301.564 81.7035L301.182 84.0387L301.127 84.4499L301.1 84.7802L301.073 85.0267L301.047 85.1913L301.046 85.1853ZM326.837 82.2464C326.646 82.2464 326.563 82.2194 326.455 82.2194C325.47 82.2194 324.978 82.5767 324.978 83.2344C324.969 83.3209 324.979 83.4083 325.007 83.4906C325.035 83.5729 325.08 83.6481 325.14 83.7108C325.2 83.7736 325.273 83.8225 325.354 83.8542C325.434 83.8858 325.521 83.8994 325.607 83.894C326.291 83.894 326.808 83.2344 326.837 82.2464ZM328.094 85.1853H326.672L326.699 84.4977C326.485 84.7671 326.209 84.9803 325.895 85.1193C325.581 85.2583 325.238 85.319 324.895 85.2961C324.673 85.2932 324.453 85.2432 324.251 85.1495C324.049 85.0557 323.868 84.9203 323.721 84.752C323.575 84.5836 323.465 84.3861 323.399 84.1723C323.333 83.9585 323.312 83.7331 323.339 83.5108C323.339 81.8901 324.431 80.956 326.344 80.956C326.535 80.956 326.781 80.983 327.028 81.0109C327.071 80.8776 327.099 80.7396 327.109 80.5998C327.109 80.1607 326.811 80.001 326.017 80.001C325.53 79.9948 325.044 80.0501 324.571 80.1657L324.35 80.2475L324.187 80.2765L324.434 78.7935C325.096 78.579 325.787 78.4676 326.483 78.4632C327.958 78.4632 328.723 79.1209 328.723 80.3853C328.727 80.8285 328.681 81.2707 328.586 81.7035L328.23 84.0387L328.177 84.4499L328.122 84.7802L328.095 85.0267V85.1913L328.094 85.1853ZM332.683 78.539H332.517C331.945 78.539 331.618 78.8145 331.097 79.6109L331.261 78.5939H329.702L328.664 85.1863H330.36C330.987 81.1487 331.154 80.4621 331.972 80.4621H332.08C332.206 79.8012 332.427 79.1624 332.736 78.566L332.683 78.539Z" fill="white"/>
<path d="M295.447 42.2415L293.937 35.3901C293.827 34.9929 293.57 34.6464 293.211 34.4143C292.853 34.1822 292.419 34.0801 291.987 34.1268H285.061L285 34.4398C290.395 35.6761 293.963 38.6593 295.447 42.2415Z" fill="#F68A0A"/>
<path d="M311.498 34.2649H307.023L304.228 49.7724H308.696L311.498 34.2649Z" fill="#004A89"/>
<path d="M298.175 49.7577L305.214 34.2764H300.477L296.099 44.8525L295.631 43.2557C294.21 40.629 292.072 38.4095 289.439 36.8272L293.441 49.7605L298.175 49.7577Z" fill="#004A89"/>
<path d="M324.263 44.7022C324.279 42.9405 323.081 41.598 320.507 40.4893C318.941 39.7738 317.986 39.2949 317.997 38.5682C317.997 37.9263 318.807 37.2359 320.56 37.2359C321.706 37.2117 322.846 37.4142 323.905 37.8303L324.309 38.0064L324.917 34.6469C323.631 34.2098 322.273 33.9909 320.907 34.0003C316.49 34.0003 313.379 36.1002 313.35 39.116C313.323 41.3455 315.573 42.5864 317.27 43.329C319.011 44.0864 319.593 44.5718 319.582 45.2501C319.57 46.2907 318.197 46.7631 316.91 46.7631C315.458 46.8037 314.016 46.525 312.697 45.9488L312.126 45.701L311.497 49.177C313.091 49.7327 314.778 50.0114 316.477 49.9996C321.173 49.9987 324.228 47.9239 324.263 44.7022Z" fill="#004A89"/>
<path d="M329.58 47.448L335.306 47.4536C335.442 47.994 335.85 49.7771 335.85 49.7771H340L336.379 34.2818H332.93C332.444 34.2224 331.952 34.3159 331.528 34.5478C331.105 34.7797 330.774 35.1371 330.587 35.5647L323.947 49.7771H328.646C328.646 49.7771 329.405 47.8672 329.58 47.448ZM332.645 39.9379C332.622 39.9799 333.014 39.0407 333.236 38.4575L333.539 39.7944C333.539 39.7944 334.392 43.4987 334.571 44.272H330.867C331.236 43.3813 332.641 39.9388 332.641 39.9388L332.645 39.9379Z" fill="#004A89"/>
<path d="M27.2656 23.293C27.1602 24.1953 26.8262 24.8926 26.2637 25.3848C25.7051 25.873 24.9609 26.1172 24.0312 26.1172C23.0234 26.1172 22.2148 25.7559 21.6055 25.0332C21 24.3105 20.6973 23.3438 20.6973 22.1328V21.3125C20.6973 20.5195 20.8379 19.8223 21.1191 19.2207C21.4043 18.6191 21.8066 18.1582 22.3262 17.8379C22.8457 17.5137 23.4473 17.3516 24.1309 17.3516C25.0371 17.3516 25.7637 17.6055 26.3105 18.1133C26.8574 18.6172 27.1758 19.3164 27.2656 20.2109H26.1348C26.0371 19.5312 25.8242 19.0391 25.4961 18.7344C25.1719 18.4297 24.7168 18.2773 24.1309 18.2773C23.4121 18.2773 22.8477 18.543 22.4375 19.0742C22.0312 19.6055 21.8281 20.3613 21.8281 21.3418V22.168C21.8281 23.0938 22.0215 23.8301 22.4082 24.377C22.7949 24.9238 23.3359 25.1973 24.0312 25.1973C24.6562 25.1973 25.1348 25.0566 25.4668 24.7754C25.8027 24.4902 26.0254 23.9961 26.1348 23.293H27.2656ZM32.5508 26C32.4883 25.875 32.4375 25.6523 32.3984 25.332C31.8945 25.8555 31.293 26.1172 30.5938 26.1172C29.9688 26.1172 29.4551 25.9414 29.0527 25.5898C28.6543 25.2344 28.4551 24.7852 28.4551 24.2422C28.4551 23.582 28.7051 23.0703 29.2051 22.707C29.709 22.3398 30.416 22.1562 31.3262 22.1562H32.3809V21.6582C32.3809 21.2793 32.2676 20.9785 32.041 20.7559C31.8145 20.5293 31.4805 20.416 31.0391 20.416C30.6523 20.416 30.3281 20.5137 30.0664 20.709C29.8047 20.9043 29.6738 21.1406 29.6738 21.418H28.584C28.584 21.1016 28.6953 20.7969 28.918 20.5039C29.1445 20.207 29.4492 19.9727 29.832 19.8008C30.2188 19.6289 30.6426 19.543 31.1035 19.543C31.834 19.543 32.4062 19.7266 32.8203 20.0938C33.2344 20.457 33.4492 20.959 33.4648 21.5996V24.5176C33.4648 25.0996 33.5391 25.5625 33.6875 25.9062V26H32.5508ZM30.752 25.1738C31.0918 25.1738 31.4141 25.0859 31.7188 24.9102C32.0234 24.7344 32.2441 24.5059 32.3809 24.2246V22.9238H31.5312C30.2031 22.9238 29.5391 23.3125 29.5391 24.0898C29.5391 24.4297 29.6523 24.6953 29.8789 24.8867C30.1055 25.0781 30.3965 25.1738 30.752 25.1738ZM38.2285 20.6328C38.0645 20.6055 37.8867 20.5918 37.6953 20.5918C36.9844 20.5918 36.502 20.8945 36.248 21.5V26H35.1641V19.6602H36.2188L36.2363 20.3926C36.5918 19.8262 37.0957 19.543 37.748 19.543C37.959 19.543 38.1191 19.5703 38.2285 19.625V20.6328ZM38.8496 22.7773C38.8496 21.8047 39.0801 21.0234 39.541 20.4336C40.002 19.8398 40.6055 19.543 41.3516 19.543C42.0938 19.543 42.6816 19.7969 43.1152 20.3047V17H44.1992V26H43.2031L43.1504 25.3203C42.7168 25.8516 42.1133 26.1172 41.3398 26.1172C40.6055 26.1172 40.0059 25.8164 39.541 25.2148C39.0801 24.6133 38.8496 23.8281 38.8496 22.8594V22.7773ZM39.9336 22.9004C39.9336 23.6191 40.082 24.1816 40.3789 24.5879C40.6758 24.9941 41.0859 25.1973 41.6094 25.1973C42.2969 25.1973 42.7988 24.8887 43.1152 24.2715V21.3594C42.791 20.7617 42.293 20.4629 41.6211 20.4629C41.0898 20.4629 40.6758 20.668 40.3789 21.0781C40.082 21.4883 39.9336 22.0957 39.9336 22.9004ZM49.8887 19.6602L49.9238 20.457C50.4082 19.8477 51.041 19.543 51.8223 19.543C53.1621 19.543 53.8379 20.2988 53.8496 21.8105V26H52.7656V21.8047C52.7617 21.3477 52.6562 21.0098 52.4492 20.791C52.2461 20.5723 51.9277 20.4629 51.4941 20.4629C51.1426 20.4629 50.834 20.5566 50.5684 20.7441C50.3027 20.9316 50.0957 21.1777 49.9473 21.4824V26H48.8633V19.6602H49.8887ZM59.3984 25.373C58.9766 25.8691 58.3574 26.1172 57.541 26.1172C56.8652 26.1172 56.3496 25.9219 55.9941 25.5312C55.6426 25.1367 55.4648 24.5547 55.4609 23.7852V19.6602H56.5449V23.7559C56.5449 24.7168 56.9355 25.1973 57.7168 25.1973C58.5449 25.1973 59.0957 24.8887 59.3691 24.2715V19.6602H60.4531V26H59.4219L59.3984 25.373ZM63.125 19.6602L63.1543 20.3633C63.6191 19.8164 64.2461 19.543 65.0352 19.543C65.9219 19.543 66.5254 19.8828 66.8457 20.5625C67.0566 20.2578 67.3301 20.0117 67.666 19.8242C68.0059 19.6367 68.4062 19.543 68.8672 19.543C70.2578 19.543 70.9648 20.2793 70.9883 21.752V26H69.9043V21.8164C69.9043 21.3633 69.8008 21.0254 69.5938 20.8027C69.3867 20.5762 69.0391 20.4629 68.5508 20.4629C68.1484 20.4629 67.8145 20.584 67.5488 20.8262C67.2832 21.0645 67.1289 21.3867 67.0859 21.793V26H65.9961V21.8457C65.9961 20.9238 65.5449 20.4629 64.6426 20.4629C63.9316 20.4629 63.4453 20.7656 63.1836 21.3711V26H62.0996V19.6602H63.125ZM77.9961 22.9004C77.9961 23.8691 77.7734 24.6484 77.3281 25.2383C76.8828 25.8242 76.2852 26.1172 75.5352 26.1172C74.7344 26.1172 74.1152 25.834 73.6777 25.2676L73.625 26H72.6289V17H73.7129V20.3574C74.1504 19.8145 74.7539 19.543 75.5234 19.543C76.293 19.543 76.8965 19.834 77.334 20.416C77.7754 20.998 77.9961 21.7949 77.9961 22.8066V22.9004ZM76.9121 22.7773C76.9121 22.0391 76.7695 21.4688 76.4844 21.0664C76.1992 20.6641 75.7891 20.4629 75.2539 20.4629C74.5391 20.4629 74.0254 20.7949 73.7129 21.459V24.2012C74.0449 24.8652 74.5625 25.1973 75.2656 25.1973C75.7852 25.1973 76.1895 24.9961 76.4785 24.5938C76.7676 24.1914 76.9121 23.5859 76.9121 22.7773ZM81.998 26.1172C81.1387 26.1172 80.4395 25.8359 79.9004 25.2734C79.3613 24.707 79.0918 23.9512 79.0918 23.0059V22.8066C79.0918 22.1777 79.2109 21.6172 79.4492 21.125C79.6914 20.6289 80.0273 20.2422 80.457 19.9648C80.8906 19.6836 81.3594 19.543 81.8633 19.543C82.6875 19.543 83.3281 19.8145 83.7852 20.3574C84.2422 20.9004 84.4707 21.6777 84.4707 22.6895V23.1406H80.1758C80.1914 23.7656 80.373 24.2715 80.7207 24.6582C81.0723 25.041 81.5176 25.2324 82.0566 25.2324C82.4395 25.2324 82.7637 25.1543 83.0293 24.998C83.2949 24.8418 83.5273 24.6348 83.7266 24.377L84.3887 24.8926C83.8574 25.709 83.0605 26.1172 81.998 26.1172ZM81.8633 20.4336C81.4258 20.4336 81.0586 20.5938 80.7617 20.9141C80.4648 21.2305 80.2812 21.6758 80.2109 22.25H83.3867V22.168C83.3555 21.6172 83.207 21.1914 82.9414 20.8906C82.6758 20.5859 82.3164 20.4336 81.8633 20.4336ZM88.7949 20.6328C88.6309 20.6055 88.4531 20.5918 88.2617 20.5918C87.5508 20.5918 87.0684 20.8945 86.8145 21.5V26H85.7305V19.6602H86.7852L86.8027 20.3926C87.1582 19.8262 87.6621 19.543 88.3145 19.543C88.5254 19.543 88.6855 19.5703 88.7949 19.625V20.6328Z" fill="#161615"/>
<path d="M25.8125 86.0566H22.1152V89.0801H26.4102V90H20.9902V81.4688H26.3516V82.3945H22.1152V85.1367H25.8125V86.0566ZM29.7676 85.9746L31.1738 83.6602H32.4395L30.3652 86.7949L32.5039 90H31.25L29.7852 87.627L28.3203 90H27.0605L29.1992 86.7949L27.125 83.6602H28.3789L29.7676 85.9746ZM38.9492 86.9004C38.9492 87.8652 38.7285 88.6426 38.2871 89.2324C37.8457 89.8223 37.248 90.1172 36.4941 90.1172C35.7246 90.1172 35.1191 89.873 34.6777 89.3848V92.4375H33.5938V83.6602H34.584L34.6367 84.3633C35.0781 83.8164 35.6914 83.543 36.4766 83.543C37.2383 83.543 37.8398 83.8301 38.2812 84.4043C38.7266 84.9785 38.9492 85.7773 38.9492 86.8008V86.9004ZM37.8652 86.7773C37.8652 86.0625 37.7129 85.498 37.4082 85.084C37.1035 84.6699 36.6855 84.4629 36.1543 84.4629C35.498 84.4629 35.0059 84.7539 34.6777 85.3359V88.3652C35.002 88.9434 35.498 89.2324 36.166 89.2324C36.6855 89.2324 37.0977 89.0273 37.4023 88.6172C37.7109 88.2031 37.8652 87.5898 37.8652 86.7773ZM41.5098 90H40.4258V83.6602H41.5098V90ZM40.3379 81.9785C40.3379 81.8027 40.3906 81.6543 40.4961 81.5332C40.6055 81.4121 40.7656 81.3516 40.9766 81.3516C41.1875 81.3516 41.3477 81.4121 41.457 81.5332C41.5664 81.6543 41.6211 81.8027 41.6211 81.9785C41.6211 82.1543 41.5664 82.3008 41.457 82.418C41.3477 82.5352 41.1875 82.5938 40.9766 82.5938C40.7656 82.5938 40.6055 82.5352 40.4961 82.418C40.3906 82.3008 40.3379 82.1543 40.3379 81.9785ZM46.3145 84.6328C46.1504 84.6055 45.9727 84.5918 45.7812 84.5918C45.0703 84.5918 44.5879 84.8945 44.334 85.5V90H43.25V83.6602H44.3047L44.3223 84.3926C44.6777 83.8262 45.1816 83.543 45.834 83.543C46.0449 83.543 46.2051 83.5703 46.3145 83.625V84.6328ZM50.9961 90C50.9336 89.875 50.8828 89.6523 50.8438 89.332C50.3398 89.8555 49.7383 90.1172 49.0391 90.1172C48.4141 90.1172 47.9004 89.9414 47.498 89.5898C47.0996 89.2344 46.9004 88.7852 46.9004 88.2422C46.9004 87.582 47.1504 87.0703 47.6504 86.707C48.1543 86.3398 48.8613 86.1562 49.7715 86.1562H50.8262V85.6582C50.8262 85.2793 50.7129 84.9785 50.4863 84.7559C50.2598 84.5293 49.9258 84.416 49.4844 84.416C49.0977 84.416 48.7734 84.5137 48.5117 84.709C48.25 84.9043 48.1191 85.1406 48.1191 85.418H47.0293C47.0293 85.1016 47.1406 84.7969 47.3633 84.5039C47.5898 84.207 47.8945 83.9727 48.2773 83.8008C48.6641 83.6289 49.0879 83.543 49.5488 83.543C50.2793 83.543 50.8516 83.7266 51.2656 84.0938C51.6797 84.457 51.8945 84.959 51.9102 85.5996V88.5176C51.9102 89.0996 51.9844 89.5625 52.1328 89.9062V90H50.9961ZM49.1973 89.1738C49.5371 89.1738 49.8594 89.0859 50.1641 88.9102C50.4688 88.7344 50.6895 88.5059 50.8262 88.2246V86.9238H49.9766C48.6484 86.9238 47.9844 87.3125 47.9844 88.0898C47.9844 88.4297 48.0977 88.6953 48.3242 88.8867C48.5508 89.0781 48.8418 89.1738 49.1973 89.1738ZM55.0801 82.125V83.6602H56.2637V84.498H55.0801V88.4297C55.0801 88.6836 55.1328 88.875 55.2383 89.0039C55.3438 89.1289 55.5234 89.1914 55.7773 89.1914C55.9023 89.1914 56.0742 89.168 56.293 89.1211V90C56.0078 90.0781 55.7305 90.1172 55.4609 90.1172C54.9766 90.1172 54.6113 89.9707 54.3652 89.6777C54.1191 89.3848 53.9961 88.9688 53.9961 88.4297V84.498H52.8418V83.6602H53.9961V82.125H55.0801ZM58.7129 90H57.6289V83.6602H58.7129V90ZM57.541 81.9785C57.541 81.8027 57.5938 81.6543 57.6992 81.5332C57.8086 81.4121 57.9688 81.3516 58.1797 81.3516C58.3906 81.3516 58.5508 81.4121 58.6602 81.5332C58.7695 81.6543 58.8242 81.8027 58.8242 81.9785C58.8242 82.1543 58.7695 82.3008 58.6602 82.418C58.5508 82.5352 58.3906 82.5938 58.1797 82.5938C57.9688 82.5938 57.8086 82.5352 57.6992 82.418C57.5938 82.3008 57.541 82.1543 57.541 81.9785ZM60.166 86.7715C60.166 86.1504 60.2871 85.5918 60.5293 85.0957C60.7754 84.5996 61.1152 84.2168 61.5488 83.9473C61.9863 83.6777 62.4844 83.543 63.043 83.543C63.9062 83.543 64.6035 83.8418 65.1348 84.4395C65.6699 85.0371 65.9375 85.832 65.9375 86.8242V86.9004C65.9375 87.5176 65.8184 88.0723 65.5801 88.5645C65.3457 89.0527 65.0078 89.4336 64.5664 89.707C64.1289 89.9805 63.625 90.1172 63.0547 90.1172C62.1953 90.1172 61.498 89.8184 60.9629 89.2207C60.4316 88.623 60.166 87.832 60.166 86.8477V86.7715ZM61.2559 86.9004C61.2559 87.6035 61.418 88.168 61.7422 88.5938C62.0703 89.0195 62.5078 89.2324 63.0547 89.2324C63.6055 89.2324 64.043 89.0176 64.3672 88.5879C64.6914 88.1543 64.8535 87.5488 64.8535 86.7715C64.8535 86.0762 64.6875 85.5137 64.3555 85.084C64.0273 84.6504 63.5898 84.4336 63.043 84.4336C62.5078 84.4336 62.0762 84.6465 61.748 85.0723C61.4199 85.498 61.2559 86.1074 61.2559 86.9004ZM68.3223 83.6602L68.3574 84.457C68.8418 83.8477 69.4746 83.543 70.2559 83.543C71.5957 83.543 72.2715 84.2988 72.2832 85.8105V90H71.1992V85.8047C71.1953 85.3477 71.0898 85.0098 70.8828 84.791C70.6797 84.5723 70.3613 84.4629 69.9277 84.4629C69.5762 84.4629 69.2676 84.5566 69.002 84.7441C68.7363 84.9316 68.5293 85.1777 68.3809 85.4824V90H67.2969V83.6602H68.3223ZM76.6309 86.7773C76.6309 85.8047 76.8613 85.0234 77.3223 84.4336C77.7832 83.8398 78.3867 83.543 79.1328 83.543C79.875 83.543 80.4629 83.7969 80.8965 84.3047V81H81.9805V90H80.9844L80.9316 89.3203C80.498 89.8516 79.8945 90.1172 79.1211 90.1172C78.3867 90.1172 77.7871 89.8164 77.3223 89.2148C76.8613 88.6133 76.6309 87.8281 76.6309 86.8594V86.7773ZM77.7148 86.9004C77.7148 87.6191 77.8633 88.1816 78.1602 88.5879C78.457 88.9941 78.8672 89.1973 79.3906 89.1973C80.0781 89.1973 80.5801 88.8887 80.8965 88.2715V85.3594C80.5723 84.7617 80.0742 84.4629 79.4023 84.4629C78.8711 84.4629 78.457 84.668 78.1602 85.0781C77.8633 85.4883 77.7148 86.0957 77.7148 86.9004ZM87.582 90C87.5195 89.875 87.4688 89.6523 87.4297 89.332C86.9258 89.8555 86.3242 90.1172 85.625 90.1172C85 90.1172 84.4863 89.9414 84.084 89.5898C83.6855 89.2344 83.4863 88.7852 83.4863 88.2422C83.4863 87.582 83.7363 87.0703 84.2363 86.707C84.7402 86.3398 85.4473 86.1562 86.3574 86.1562H87.4121V85.6582C87.4121 85.2793 87.2988 84.9785 87.0723 84.7559C86.8457 84.5293 86.5117 84.416 86.0703 84.416C85.6836 84.416 85.3594 84.5137 85.0977 84.709C84.8359 84.9043 84.7051 85.1406 84.7051 85.418H83.6152C83.6152 85.1016 83.7266 84.7969 83.9492 84.5039C84.1758 84.207 84.4805 83.9727 84.8633 83.8008C85.25 83.6289 85.6738 83.543 86.1348 83.543C86.8652 83.543 87.4375 83.7266 87.8516 84.0938C88.2656 84.457 88.4805 84.959 88.4961 85.5996V88.5176C88.4961 89.0996 88.5703 89.5625 88.7188 89.9062V90H87.582ZM85.7832 89.1738C86.123 89.1738 86.4453 89.0859 86.75 88.9102C87.0547 88.7344 87.2754 88.5059 87.4121 88.2246V86.9238H86.5625C85.2344 86.9238 84.5703 87.3125 84.5703 88.0898C84.5703 88.4297 84.6836 88.6953 84.9102 88.8867C85.1367 89.0781 85.4277 89.1738 85.7832 89.1738ZM91.666 82.125V83.6602H92.8496V84.498H91.666V88.4297C91.666 88.6836 91.7188 88.875 91.8242 89.0039C91.9297 89.1289 92.1094 89.1914 92.3633 89.1914C92.4883 89.1914 92.6602 89.168 92.8789 89.1211V90C92.5938 90.0781 92.3164 90.1172 92.0469 90.1172C91.5625 90.1172 91.1973 89.9707 90.9512 89.6777C90.7051 89.3848 90.582 88.9688 90.582 88.4297V84.498H89.4277V83.6602H90.582V82.125H91.666ZM96.752 90.1172C95.8926 90.1172 95.1934 89.8359 94.6543 89.2734C94.1152 88.707 93.8457 87.9512 93.8457 87.0059V86.8066C93.8457 86.1777 93.9648 85.6172 94.2031 85.125C94.4453 84.6289 94.7812 84.2422 95.2109 83.9648C95.6445 83.6836 96.1133 83.543 96.6172 83.543C97.4414 83.543 98.082 83.8145 98.5391 84.3574C98.9961 84.9004 99.2246 85.6777 99.2246 86.6895V87.1406H94.9297C94.9453 87.7656 95.127 88.2715 95.4746 88.6582C95.8262 89.041 96.2715 89.2324 96.8105 89.2324C97.1934 89.2324 97.5176 89.1543 97.7832 88.998C98.0488 88.8418 98.2812 88.6348 98.4805 88.377L99.1426 88.8926C98.6113 89.709 97.8145 90.1172 96.752 90.1172ZM96.6172 84.4336C96.1797 84.4336 95.8125 84.5938 95.5156 84.9141C95.2188 85.2305 95.0352 85.6758 94.9648 86.25H98.1406V86.168C98.1094 85.6172 97.9609 85.1914 97.6953 84.8906C97.4297 84.5859 97.0703 84.4336 96.6172 84.4336Z" fill="#161615"/>
<path d="M27.2656 151.293C27.1602 152.195 26.8262 152.893 26.2637 153.385C25.7051 153.873 24.9609 154.117 24.0312 154.117C23.0234 154.117 22.2148 153.756 21.6055 153.033C21 152.311 20.6973 151.344 20.6973 150.133V149.312C20.6973 148.52 20.8379 147.822 21.1191 147.221C21.4043 146.619 21.8066 146.158 22.3262 145.838C22.8457 145.514 23.4473 145.352 24.1309 145.352C25.0371 145.352 25.7637 145.605 26.3105 146.113C26.8574 146.617 27.1758 147.316 27.2656 148.211H26.1348C26.0371 147.531 25.8242 147.039 25.4961 146.734C25.1719 146.43 24.7168 146.277 24.1309 146.277C23.4121 146.277 22.8477 146.543 22.4375 147.074C22.0312 147.605 21.8281 148.361 21.8281 149.342V150.168C21.8281 151.094 22.0215 151.83 22.4082 152.377C22.7949 152.924 23.3359 153.197 24.0312 153.197C24.6562 153.197 25.1348 153.057 25.4668 152.775C25.8027 152.49 26.0254 151.996 26.1348 151.293H27.2656ZM32.5508 154C32.4883 153.875 32.4375 153.652 32.3984 153.332C31.8945 153.855 31.293 154.117 30.5938 154.117C29.9688 154.117 29.4551 153.941 29.0527 153.59C28.6543 153.234 28.4551 152.785 28.4551 152.242C28.4551 151.582 28.7051 151.07 29.2051 150.707C29.709 150.34 30.416 150.156 31.3262 150.156H32.3809V149.658C32.3809 149.279 32.2676 148.979 32.041 148.756C31.8145 148.529 31.4805 148.416 31.0391 148.416C30.6523 148.416 30.3281 148.514 30.0664 148.709C29.8047 148.904 29.6738 149.141 29.6738 149.418H28.584C28.584 149.102 28.6953 148.797 28.918 148.504C29.1445 148.207 29.4492 147.973 29.832 147.801C30.2188 147.629 30.6426 147.543 31.1035 147.543C31.834 147.543 32.4062 147.727 32.8203 148.094C33.2344 148.457 33.4492 148.959 33.4648 149.6V152.518C33.4648 153.1 33.5391 153.562 33.6875 153.906V154H32.5508ZM30.752 153.174C31.0918 153.174 31.4141 153.086 31.7188 152.91C32.0234 152.734 32.2441 152.506 32.3809 152.225V150.924H31.5312C30.2031 150.924 29.5391 151.312 29.5391 152.09C29.5391 152.43 29.6523 152.695 29.8789 152.887C30.1055 153.078 30.3965 153.174 30.752 153.174ZM38.2285 148.633C38.0645 148.605 37.8867 148.592 37.6953 148.592C36.9844 148.592 36.502 148.895 36.248 149.5V154H35.1641V147.66H36.2188L36.2363 148.393C36.5918 147.826 37.0957 147.543 37.748 147.543C37.959 147.543 38.1191 147.57 38.2285 147.625V148.633ZM38.8496 150.777C38.8496 149.805 39.0801 149.023 39.541 148.434C40.002 147.84 40.6055 147.543 41.3516 147.543C42.0938 147.543 42.6816 147.797 43.1152 148.305V145H44.1992V154H43.2031L43.1504 153.32C42.7168 153.852 42.1133 154.117 41.3398 154.117C40.6055 154.117 40.0059 153.816 39.541 153.215C39.0801 152.613 38.8496 151.828 38.8496 150.859V150.777ZM39.9336 150.9C39.9336 151.619 40.082 152.182 40.3789 152.588C40.6758 152.994 41.0859 153.197 41.6094 153.197C42.2969 153.197 42.7988 152.889 43.1152 152.271V149.359C42.791 148.762 42.293 148.463 41.6211 148.463C41.0898 148.463 40.6758 148.668 40.3789 149.078C40.082 149.488 39.9336 150.096 39.9336 150.9ZM46.9707 148.428C47.4512 147.838 48.0762 147.543 48.8457 147.543C50.1855 147.543 50.8613 148.299 50.873 149.811V154H49.7891V149.805C49.7852 149.348 49.6797 149.01 49.4727 148.791C49.2695 148.572 48.9512 148.463 48.5176 148.463C48.166 148.463 47.8574 148.557 47.5918 148.744C47.3262 148.932 47.1191 149.178 46.9707 149.482V154H45.8867V145H46.9707V148.428ZM52.209 150.771C52.209 150.15 52.3301 149.592 52.5723 149.096C52.8184 148.6 53.1582 148.217 53.5918 147.947C54.0293 147.678 54.5273 147.543 55.0859 147.543C55.9492 147.543 56.6465 147.842 57.1777 148.439C57.7129 149.037 57.9805 149.832 57.9805 150.824V150.9C57.9805 151.518 57.8613 152.072 57.623 152.564C57.3887 153.053 57.0508 153.434 56.6094 153.707C56.1719 153.98 55.668 154.117 55.0977 154.117C54.2383 154.117 53.541 153.818 53.0059 153.221C52.4746 152.623 52.209 151.832 52.209 150.848V150.771ZM53.2988 150.9C53.2988 151.604 53.4609 152.168 53.7852 152.594C54.1133 153.02 54.5508 153.232 55.0977 153.232C55.6484 153.232 56.0859 153.018 56.4102 152.588C56.7344 152.154 56.8965 151.549 56.8965 150.771C56.8965 150.076 56.7305 149.514 56.3984 149.084C56.0703 148.65 55.6328 148.434 55.0859 148.434C54.5508 148.434 54.1191 148.646 53.791 149.072C53.4629 149.498 53.2988 150.107 53.2988 150.9ZM60.5176 154H59.4336V145H60.5176V154ZM61.9941 150.777C61.9941 149.805 62.2246 149.023 62.6855 148.434C63.1465 147.84 63.75 147.543 64.4961 147.543C65.2383 147.543 65.8262 147.797 66.2598 148.305V145H67.3438V154H66.3477L66.2949 153.32C65.8613 153.852 65.2578 154.117 64.4844 154.117C63.75 154.117 63.1504 153.816 62.6855 153.215C62.2246 152.613 61.9941 151.828 61.9941 150.859V150.777ZM63.0781 150.9C63.0781 151.619 63.2266 152.182 63.5234 152.588C63.8203 152.994 64.2305 153.197 64.7539 153.197C65.4414 153.197 65.9434 152.889 66.2598 152.271V149.359C65.9355 148.762 65.4375 148.463 64.7656 148.463C64.2344 148.463 63.8203 148.668 63.5234 149.078C63.2266 149.488 63.0781 150.096 63.0781 150.9ZM71.6621 154.117C70.8027 154.117 70.1035 153.836 69.5645 153.273C69.0254 152.707 68.7559 151.951 68.7559 151.006V150.807C68.7559 150.178 68.875 149.617 69.1133 149.125C69.3555 148.629 69.6914 148.242 70.1211 147.965C70.5547 147.684 71.0234 147.543 71.5273 147.543C72.3516 147.543 72.9922 147.814 73.4492 148.357C73.9062 148.9 74.1348 149.678 74.1348 150.689V151.141H69.8398C69.8555 151.766 70.0371 152.271 70.3848 152.658C70.7363 153.041 71.1816 153.232 71.7207 153.232C72.1035 153.232 72.4277 153.154 72.6934 152.998C72.959 152.842 73.1914 152.635 73.3906 152.377L74.0527 152.893C73.5215 153.709 72.7246 154.117 71.6621 154.117ZM71.5273 148.434C71.0898 148.434 70.7227 148.594 70.4258 148.914C70.1289 149.23 69.9453 149.676 69.875 150.25H73.0508V150.168C73.0195 149.617 72.8711 149.191 72.6055 148.891C72.3398 148.586 71.9805 148.434 71.5273 148.434ZM78.459 148.633C78.2949 148.605 78.1172 148.592 77.9258 148.592C77.2148 148.592 76.7324 148.895 76.4785 149.5V154H75.3945V147.66H76.4492L76.4668 148.393C76.8223 147.826 77.3262 147.543 77.9785 147.543C78.1895 147.543 78.3496 147.57 78.459 147.625V148.633ZM83.4629 147.66L83.498 148.457C83.9824 147.848 84.6152 147.543 85.3965 147.543C86.7363 147.543 87.4121 148.299 87.4238 149.811V154H86.3398V149.805C86.3359 149.348 86.2305 149.01 86.0234 148.791C85.8203 148.572 85.502 148.463 85.0684 148.463C84.7168 148.463 84.4082 148.557 84.1426 148.744C83.877 148.932 83.6699 149.178 83.5215 149.482V154H82.4375V147.66H83.4629ZM92.9727 154C92.9102 153.875 92.8594 153.652 92.8203 153.332C92.3164 153.855 91.7148 154.117 91.0156 154.117C90.3906 154.117 89.877 153.941 89.4746 153.59C89.0762 153.234 88.877 152.785 88.877 152.242C88.877 151.582 89.127 151.07 89.627 150.707C90.1309 150.34 90.8379 150.156 91.748 150.156H92.8027V149.658C92.8027 149.279 92.6895 148.979 92.4629 148.756C92.2363 148.529 91.9023 148.416 91.4609 148.416C91.0742 148.416 90.75 148.514 90.4883 148.709C90.2266 148.904 90.0957 149.141 90.0957 149.418H89.0059C89.0059 149.102 89.1172 148.797 89.3398 148.504C89.5664 148.207 89.8711 147.973 90.2539 147.801C90.6406 147.629 91.0645 147.543 91.5254 147.543C92.2559 147.543 92.8281 147.727 93.2422 148.094C93.6562 148.457 93.8711 148.959 93.8867 149.6V152.518C93.8867 153.1 93.9609 153.562 94.1094 153.906V154H92.9727ZM91.1738 153.174C91.5137 153.174 91.8359 153.086 92.1406 152.91C92.4453 152.734 92.666 152.506 92.8027 152.225V150.924H91.9531C90.625 150.924 89.9609 151.312 89.9609 152.09C89.9609 152.43 90.0742 152.695 90.3008 152.887C90.5273 153.078 90.8184 153.174 91.1738 153.174ZM96.6055 147.66L96.6348 148.363C97.0996 147.816 97.7266 147.543 98.5156 147.543C99.4023 147.543 100.006 147.883 100.326 148.562C100.537 148.258 100.811 148.012 101.146 147.824C101.486 147.637 101.887 147.543 102.348 147.543C103.738 147.543 104.445 148.279 104.469 149.752V154H103.385V149.816C103.385 149.363 103.281 149.025 103.074 148.803C102.867 148.576 102.52 148.463 102.031 148.463C101.629 148.463 101.295 148.584 101.029 148.826C100.764 149.064 100.609 149.387 100.566 149.793V154H99.4766V149.846C99.4766 148.924 99.0254 148.463 98.123 148.463C97.4121 148.463 96.9258 148.766 96.6641 149.371V154H95.5801V147.66H96.6055ZM108.74 154.117C107.881 154.117 107.182 153.836 106.643 153.273C106.104 152.707 105.834 151.951 105.834 151.006V150.807C105.834 150.178 105.953 149.617 106.191 149.125C106.434 148.629 106.77 148.242 107.199 147.965C107.633 147.684 108.102 147.543 108.605 147.543C109.43 147.543 110.07 147.814 110.527 148.357C110.984 148.9 111.213 149.678 111.213 150.689V151.141H106.918C106.934 151.766 107.115 152.271 107.463 152.658C107.814 153.041 108.26 153.232 108.799 153.232C109.182 153.232 109.506 153.154 109.771 152.998C110.037 152.842 110.27 152.635 110.469 152.377L111.131 152.893C110.6 153.709 109.803 154.117 108.74 154.117ZM108.605 148.434C108.168 148.434 107.801 148.594 107.504 148.914C107.207 149.23 107.023 149.676 106.953 150.25H110.129V150.168C110.098 149.617 109.949 149.191 109.684 148.891C109.418 148.586 109.059 148.434 108.605 148.434Z" fill="#161615"/>
<path d="M120 98H20V133H120V98Z" fill="white" stroke="#A4A4A3" stroke-width="0.5" stroke-miterlimit="10"/>
<path d="M120 98H92V133H120V98Z" fill="white" stroke="#A4A4A3" stroke-width="0.5" stroke-miterlimit="10"/>
<path d="M106.003 110L103.004 114H109.004L106.003 110Z" fill="#A4A4A3"/>
<path d="M106.002 121L109 117H103L106.002 121Z" fill="#A4A4A3"/>
<path d="M36.0586 115.361C36.0586 116.631 35.8418 117.574 35.4082 118.191C34.9746 118.809 34.2969 119.117 33.375 119.117C32.4648 119.117 31.791 118.816 31.3535 118.215C30.916 117.609 30.6895 116.707 30.6738 115.508V114.061C30.6738 112.807 30.8906 111.875 31.3242 111.266C31.7578 110.656 32.4375 110.352 33.3633 110.352C34.2812 110.352 34.957 110.646 35.3906 111.236C35.8242 111.822 36.0469 112.729 36.0586 113.955V115.361ZM34.9746 113.879C34.9746 112.961 34.8457 112.293 34.5879 111.875C34.3301 111.453 33.9219 111.242 33.3633 111.242C32.8086 111.242 32.4043 111.451 32.1504 111.869C31.8965 112.287 31.7656 112.93 31.7578 113.797V115.531C31.7578 116.453 31.8906 117.135 32.1562 117.576C32.4258 118.014 32.832 118.232 33.375 118.232C33.9102 118.232 34.3066 118.025 34.5645 117.611C34.8262 117.197 34.9629 116.545 34.9746 115.654V113.879ZM39.0234 114.207H39.8379C40.3496 114.199 40.752 114.064 41.0449 113.803C41.3379 113.541 41.4844 113.188 41.4844 112.742C41.4844 111.742 40.9863 111.242 39.9902 111.242C39.5215 111.242 39.1465 111.377 38.8652 111.646C38.5879 111.912 38.4492 112.266 38.4492 112.707H37.3652C37.3652 112.031 37.6113 111.471 38.1035 111.025C38.5996 110.576 39.2285 110.352 39.9902 110.352C40.7949 110.352 41.4258 110.564 41.8828 110.99C42.3398 111.416 42.5684 112.008 42.5684 112.766C42.5684 113.137 42.4473 113.496 42.2051 113.844C41.9668 114.191 41.6406 114.451 41.2266 114.623C41.6953 114.771 42.0566 115.018 42.3105 115.361C42.5684 115.705 42.6973 116.125 42.6973 116.621C42.6973 117.387 42.4473 117.994 41.9473 118.443C41.4473 118.893 40.7969 119.117 39.9961 119.117C39.1953 119.117 38.543 118.9 38.0391 118.467C37.5391 118.033 37.2891 117.461 37.2891 116.75H38.3789C38.3789 117.199 38.5254 117.559 38.8184 117.828C39.1113 118.098 39.5039 118.232 39.9961 118.232C40.5195 118.232 40.9199 118.096 41.1973 117.822C41.4746 117.549 41.6133 117.156 41.6133 116.645C41.6133 116.148 41.4609 115.768 41.1562 115.502C40.8516 115.236 40.4121 115.1 39.8379 115.092H39.0234V114.207Z" fill="#161615"/>
<path d="M235 98H135V133H235V98Z" fill="white" stroke="#A4A4A3" stroke-width="0.5" stroke-miterlimit="10"/>
<path d="M235 98H207V133H235V98Z" fill="white" stroke="#A4A4A3" stroke-width="0.5" stroke-miterlimit="10"/>
<path d="M221.003 110L218.004 114H224.004L221.003 110Z" fill="#A4A4A3"/>
<path d="M221.002 121L224 117H218L221.002 121Z" fill="#A4A4A3"/>
<path d="M151.299 119H145.709V118.221L148.662 114.939C149.1 114.443 149.4 114.041 149.564 113.732C149.732 113.42 149.816 113.098 149.816 112.766C149.816 112.32 149.682 111.955 149.412 111.67C149.143 111.385 148.783 111.242 148.334 111.242C147.795 111.242 147.375 111.396 147.074 111.705C146.777 112.01 146.629 112.436 146.629 112.982H145.545C145.545 112.197 145.797 111.562 146.301 111.078C146.809 110.594 147.486 110.352 148.334 110.352C149.127 110.352 149.754 110.561 150.215 110.979C150.676 111.393 150.906 111.945 150.906 112.637C150.906 113.477 150.371 114.477 149.301 115.637L147.016 118.115H151.299V119ZM157.797 115.361C157.797 116.631 157.58 117.574 157.146 118.191C156.713 118.809 156.035 119.117 155.113 119.117C154.203 119.117 153.529 118.816 153.092 118.215C152.654 117.609 152.428 116.707 152.412 115.508V114.061C152.412 112.807 152.629 111.875 153.062 111.266C153.496 110.656 154.176 110.352 155.102 110.352C156.02 110.352 156.695 110.646 157.129 111.236C157.562 111.822 157.785 112.729 157.797 113.955V115.361ZM156.713 113.879C156.713 112.961 156.584 112.293 156.326 111.875C156.068 111.453 155.66 111.242 155.102 111.242C154.547 111.242 154.143 111.451 153.889 111.869C153.635 112.287 153.504 112.93 153.496 113.797V115.531C153.496 116.453 153.629 117.135 153.895 117.576C154.164 118.014 154.57 118.232 155.113 118.232C155.648 118.232 156.045 118.025 156.303 117.611C156.564 117.197 156.701 116.545 156.713 115.654V113.879ZM164.775 119H159.186V118.221L162.139 114.939C162.576 114.443 162.877 114.041 163.041 113.732C163.209 113.42 163.293 113.098 163.293 112.766C163.293 112.32 163.158 111.955 162.889 111.67C162.619 111.385 162.26 111.242 161.811 111.242C161.271 111.242 160.852 111.396 160.551 111.705C160.254 112.01 160.105 112.436 160.105 112.982H159.021C159.021 112.197 159.273 111.562 159.777 111.078C160.285 110.594 160.963 110.352 161.811 110.352C162.604 110.352 163.23 110.561 163.691 110.979C164.152 111.393 164.383 111.945 164.383 112.637C164.383 113.477 163.848 114.477 162.777 115.637L160.492 118.115H164.775V119ZM170.5 116.135H171.684V117.02H170.5V119H169.41V117.02H165.525V116.381L169.346 110.469H170.5V116.135ZM166.756 116.135H169.41V111.951L169.281 112.186L166.756 116.135Z" fill="#161615"/>
</svg>
